<mxfile host="Electron" agent="Mozilla/5.0 (X11; Linux x86_64) AppleWebKit/537.36 (KHTML, like Gecko) draw.io/24.7.17 Chrome/128.0.6613.36 Electron/32.0.1 Safari/537.36" scale="2" border="0" version="24.7.17">
  <diagram name="Page-1" id="OxwELPkRuPZfao9SOM4j">
    <mxGraphModel dx="3651" dy="2178" grid="1" gridSize="10" guides="1" tooltips="1" connect="1" arrows="1" fold="1" page="1" pageScale="1" pageWidth="1654" pageHeight="1169" math="0" shadow="0">
      <root>
        <mxCell id="0" />
        <mxCell id="1" parent="0" />
        <mxCell id="dHFBTO0-IWhfo0u__WxC-31" value="&lt;div style=&quot;font-size: 14px;&quot;&gt;&lt;b style=&quot;background-color: initial;&quot;&gt;TPM Platform&lt;/b&gt;&lt;br&gt;&lt;/div&gt;" style="rounded=0;whiteSpace=wrap;html=1;verticalAlign=top;" parent="1" vertex="1">
          <mxGeometry x="372" y="465" width="280" height="150" as="geometry" />
        </mxCell>
        <mxCell id="dHFBTO0-IWhfo0u__WxC-124" value="Container" style="rounded=0;whiteSpace=wrap;html=1;verticalAlign=top;" parent="1" vertex="1">
          <mxGeometry x="520" y="495" width="91.99" height="60" as="geometry" />
        </mxCell>
        <mxCell id="2" value="&lt;div style=&quot;font-size: 14px;&quot;&gt;&lt;b&gt;Intel TDX CVM&lt;/b&gt;&lt;/div&gt;" style="rounded=0;whiteSpace=wrap;html=1;verticalAlign=top;" parent="1" vertex="1">
          <mxGeometry x="1037" y="120" width="280" height="160" as="geometry" />
        </mxCell>
        <mxCell id="3" value="Hardware" style="rounded=0;whiteSpace=wrap;html=1;fillColor=#f8cecc;strokeColor=#b85450;" parent="1" vertex="1">
          <mxGeometry x="907" y="330" width="410" height="60" as="geometry" />
        </mxCell>
        <mxCell id="4" value="Intel TDX CPU" style="rounded=0;whiteSpace=wrap;html=1;" parent="1" vertex="1">
          <mxGeometry x="1194.5" y="340" width="90" height="40" as="geometry" />
        </mxCell>
        <mxCell id="5" value="Hypervisor" style="rounded=0;whiteSpace=wrap;html=1;fillColor=#f8cecc;strokeColor=#b85450;" parent="1" vertex="1">
          <mxGeometry x="907" y="290" width="410" height="30" as="geometry" />
        </mxCell>
        <mxCell id="6" value="&lt;div style=&quot;font-size: 14px;&quot;&gt;&lt;b&gt;Confidential&amp;nbsp;&lt;/b&gt;&lt;/div&gt;&lt;div style=&quot;font-size: 14px;&quot;&gt;&lt;b&gt;GPU&lt;/b&gt;&lt;/div&gt;" style="rounded=0;whiteSpace=wrap;html=1;verticalAlign=top;" parent="1" vertex="1">
          <mxGeometry x="907" y="120" width="120" height="160" as="geometry" />
        </mxCell>
        <mxCell id="7" value="Virtual Firmware" style="rounded=0;whiteSpace=wrap;html=1;" parent="1" vertex="1">
          <mxGeometry x="1087" y="240" width="180" height="30" as="geometry" />
        </mxCell>
        <mxCell id="9" value="cmcd" style="rounded=0;whiteSpace=wrap;html=1;" parent="1" vertex="1">
          <mxGeometry x="1087" y="160" width="70" height="30" as="geometry" />
        </mxCell>
        <mxCell id="10" value="workload" style="rounded=0;whiteSpace=wrap;html=1;" parent="1" vertex="1">
          <mxGeometry x="1197" y="160" width="70" height="30" as="geometry" />
        </mxCell>
        <mxCell id="12" value="Guest Kernel" style="rounded=0;whiteSpace=wrap;html=1;" parent="1" vertex="1">
          <mxGeometry x="1087" y="200" width="180" height="30" as="geometry" />
        </mxCell>
        <mxCell id="13" value="" style="endArrow=classic;html=1;rounded=0;exitX=1;exitY=0.75;exitDx=0;exitDy=0;entryX=1;entryY=0.5;entryDx=0;entryDy=0;fillColor=#d5e8d4;strokeColor=#000000;startArrow=classic;startFill=1;" parent="1" source="12" target="4" edge="1">
          <mxGeometry width="50" height="50" relative="1" as="geometry">
            <mxPoint x="1907" y="100" as="sourcePoint" />
            <mxPoint x="1957" y="50" as="targetPoint" />
            <Array as="points">
              <mxPoint x="1297" y="223" />
              <mxPoint x="1297" y="360" />
            </Array>
          </mxGeometry>
        </mxCell>
        <mxCell id="15" value="" style="endArrow=classic;html=1;rounded=0;exitX=0;exitY=0.5;exitDx=0;exitDy=0;entryX=0;entryY=0.5;entryDx=0;entryDy=0;fillColor=#d5e8d4;strokeColor=#000000;startArrow=classic;startFill=1;" parent="1" source="9" target="12" edge="1">
          <mxGeometry width="50" height="50" relative="1" as="geometry">
            <mxPoint x="1557" y="190" as="sourcePoint" />
            <mxPoint x="1575" y="335" as="targetPoint" />
            <Array as="points">
              <mxPoint x="1067" y="175" />
              <mxPoint x="1067" y="215" />
            </Array>
          </mxGeometry>
        </mxCell>
        <mxCell id="dHFBTO0-IWhfo0u__WxC-16" value="" style="endArrow=classic;html=1;rounded=0;exitX=1;exitY=0.75;exitDx=0;exitDy=0;entryX=0;entryY=0.75;entryDx=0;entryDy=0;fillColor=#d5e8d4;strokeColor=#000000;" parent="1" source="9" target="10" edge="1">
          <mxGeometry width="50" height="50" relative="1" as="geometry">
            <mxPoint x="1257" y="320" as="sourcePoint" />
            <mxPoint x="1307" y="270" as="targetPoint" />
          </mxGeometry>
        </mxCell>
        <mxCell id="dHFBTO0-IWhfo0u__WxC-17" value="" style="endArrow=classic;html=1;rounded=0;entryX=1;entryY=0.25;entryDx=0;entryDy=0;exitX=0;exitY=0.25;exitDx=0;exitDy=0;fillColor=#d5e8d4;strokeColor=#000000;" parent="1" source="10" target="9" edge="1">
          <mxGeometry width="50" height="50" relative="1" as="geometry">
            <mxPoint x="1257" y="320" as="sourcePoint" />
            <mxPoint x="1307" y="270" as="targetPoint" />
          </mxGeometry>
        </mxCell>
        <mxCell id="dHFBTO0-IWhfo0u__WxC-19" value="Hardware" style="rounded=0;whiteSpace=wrap;html=1;" parent="1" vertex="1">
          <mxGeometry x="372" y="665" width="280" height="60" as="geometry" />
        </mxCell>
        <mxCell id="dHFBTO0-IWhfo0u__WxC-20" value="TPM" style="rounded=0;whiteSpace=wrap;html=1;" parent="1" vertex="1">
          <mxGeometry x="382" y="675" width="90" height="40" as="geometry" />
        </mxCell>
        <mxCell id="dHFBTO0-IWhfo0u__WxC-21" value="Firmware" style="rounded=0;whiteSpace=wrap;html=1;" parent="1" vertex="1">
          <mxGeometry x="372" y="625" width="280" height="30" as="geometry" />
        </mxCell>
        <mxCell id="dHFBTO0-IWhfo0u__WxC-24" value="cmcd" style="rounded=0;whiteSpace=wrap;html=1;" parent="1" vertex="1">
          <mxGeometry x="437" y="520" width="70" height="30" as="geometry" />
        </mxCell>
        <mxCell id="dHFBTO0-IWhfo0u__WxC-25" value="workload" style="rounded=0;whiteSpace=wrap;html=1;" parent="1" vertex="1">
          <mxGeometry x="536.5" y="520" width="58.99" height="30" as="geometry" />
        </mxCell>
        <mxCell id="dHFBTO0-IWhfo0u__WxC-26" value="Kernel" style="rounded=0;whiteSpace=wrap;html=1;" parent="1" vertex="1">
          <mxGeometry x="431.99" y="565" width="180" height="40" as="geometry" />
        </mxCell>
        <mxCell id="dHFBTO0-IWhfo0u__WxC-29" value="" style="endArrow=classic;html=1;rounded=0;exitX=1;exitY=0.75;exitDx=0;exitDy=0;entryX=0;entryY=0.75;entryDx=0;entryDy=0;fillColor=#d5e8d4;strokeColor=#000000;" parent="1" source="dHFBTO0-IWhfo0u__WxC-24" target="dHFBTO0-IWhfo0u__WxC-25" edge="1">
          <mxGeometry width="50" height="50" relative="1" as="geometry">
            <mxPoint x="601.99" y="685" as="sourcePoint" />
            <mxPoint x="651.99" y="635" as="targetPoint" />
          </mxGeometry>
        </mxCell>
        <mxCell id="dHFBTO0-IWhfo0u__WxC-30" value="" style="endArrow=classic;html=1;rounded=0;entryX=1;entryY=0.25;entryDx=0;entryDy=0;exitX=0;exitY=0.25;exitDx=0;exitDy=0;fillColor=#d5e8d4;strokeColor=#000000;" parent="1" source="dHFBTO0-IWhfo0u__WxC-25" target="dHFBTO0-IWhfo0u__WxC-24" edge="1">
          <mxGeometry width="50" height="50" relative="1" as="geometry">
            <mxPoint x="601.99" y="685" as="sourcePoint" />
            <mxPoint x="651.99" y="635" as="targetPoint" />
          </mxGeometry>
        </mxCell>
        <mxCell id="dHFBTO0-IWhfo0u__WxC-32" value="" style="edgeStyle=segmentEdgeStyle;endArrow=classic;html=1;curved=0;rounded=0;endSize=8;startSize=8;exitX=0.5;exitY=0;exitDx=0;exitDy=0;entryX=0;entryY=0.75;entryDx=0;entryDy=0;startArrow=classic;startFill=1;" parent="1" source="dHFBTO0-IWhfo0u__WxC-20" target="dHFBTO0-IWhfo0u__WxC-26" edge="1">
          <mxGeometry width="50" height="50" relative="1" as="geometry">
            <mxPoint x="362" y="615" as="sourcePoint" />
            <mxPoint x="412" y="565" as="targetPoint" />
            <Array as="points">
              <mxPoint x="420" y="675" />
              <mxPoint x="420" y="595" />
            </Array>
          </mxGeometry>
        </mxCell>
        <mxCell id="dHFBTO0-IWhfo0u__WxC-33" value="" style="edgeStyle=segmentEdgeStyle;endArrow=classic;html=1;curved=0;rounded=0;endSize=8;startSize=8;exitX=0;exitY=0.25;exitDx=0;exitDy=0;entryX=0;entryY=0.5;entryDx=0;entryDy=0;startArrow=classic;startFill=1;" parent="1" source="dHFBTO0-IWhfo0u__WxC-26" target="dHFBTO0-IWhfo0u__WxC-24" edge="1">
          <mxGeometry width="50" height="50" relative="1" as="geometry">
            <mxPoint x="446.99" y="715" as="sourcePoint" />
            <mxPoint x="441.99" y="605" as="targetPoint" />
            <Array as="points">
              <mxPoint x="420" y="575" />
              <mxPoint x="420" y="535" />
            </Array>
          </mxGeometry>
        </mxCell>
        <mxCell id="dHFBTO0-IWhfo0u__WxC-35" value="&lt;b&gt;AMD SNP CVM&lt;/b&gt;" style="rounded=0;whiteSpace=wrap;html=1;verticalAlign=top;" parent="1" vertex="1">
          <mxGeometry x="427" y="120" width="280" height="160" as="geometry" />
        </mxCell>
        <mxCell id="dHFBTO0-IWhfo0u__WxC-36" value="Hardware" style="rounded=0;whiteSpace=wrap;html=1;fillColor=#f8cecc;strokeColor=#b85450;" parent="1" vertex="1">
          <mxGeometry x="297" y="330" width="410" height="60" as="geometry" />
        </mxCell>
        <mxCell id="dHFBTO0-IWhfo0u__WxC-37" value="AMD PSP" style="rounded=0;whiteSpace=wrap;html=1;" parent="1" vertex="1">
          <mxGeometry x="584.5" y="340" width="90" height="40" as="geometry" />
        </mxCell>
        <mxCell id="dHFBTO0-IWhfo0u__WxC-38" value="Hypervisor" style="rounded=0;whiteSpace=wrap;html=1;fillColor=#f8cecc;strokeColor=#b85450;" parent="1" vertex="1">
          <mxGeometry x="297" y="290" width="410" height="30" as="geometry" />
        </mxCell>
        <mxCell id="dHFBTO0-IWhfo0u__WxC-39" value="&lt;div style=&quot;font-size: 14px;&quot;&gt;&lt;b&gt;VM&lt;/b&gt;&lt;/div&gt;" style="rounded=0;whiteSpace=wrap;html=1;fillColor=#f8cecc;strokeColor=#b85450;verticalAlign=top;" parent="1" vertex="1">
          <mxGeometry x="297" y="120" width="120" height="160" as="geometry" />
        </mxCell>
        <mxCell id="dHFBTO0-IWhfo0u__WxC-40" value="Virtual Firmware" style="rounded=0;whiteSpace=wrap;html=1;" parent="1" vertex="1">
          <mxGeometry x="477" y="240" width="180" height="30" as="geometry" />
        </mxCell>
        <mxCell id="dHFBTO0-IWhfo0u__WxC-41" value="cmcd" style="rounded=0;whiteSpace=wrap;html=1;" parent="1" vertex="1">
          <mxGeometry x="477" y="160" width="70" height="30" as="geometry" />
        </mxCell>
        <mxCell id="dHFBTO0-IWhfo0u__WxC-42" value="workload" style="rounded=0;whiteSpace=wrap;html=1;" parent="1" vertex="1">
          <mxGeometry x="587" y="160" width="70" height="30" as="geometry" />
        </mxCell>
        <mxCell id="dHFBTO0-IWhfo0u__WxC-43" value="Guest Kernel" style="rounded=0;whiteSpace=wrap;html=1;" parent="1" vertex="1">
          <mxGeometry x="477" y="200" width="180" height="30" as="geometry" />
        </mxCell>
        <mxCell id="dHFBTO0-IWhfo0u__WxC-44" value="" style="endArrow=classic;html=1;rounded=0;exitX=1;exitY=0.75;exitDx=0;exitDy=0;entryX=1;entryY=0.5;entryDx=0;entryDy=0;fillColor=#d5e8d4;strokeColor=#000000;startArrow=classic;startFill=1;" parent="1" source="dHFBTO0-IWhfo0u__WxC-43" target="dHFBTO0-IWhfo0u__WxC-37" edge="1">
          <mxGeometry width="50" height="50" relative="1" as="geometry">
            <mxPoint x="1297" y="100" as="sourcePoint" />
            <mxPoint x="1347" y="50" as="targetPoint" />
            <Array as="points">
              <mxPoint x="687" y="223" />
              <mxPoint x="687" y="360" />
            </Array>
          </mxGeometry>
        </mxCell>
        <mxCell id="dHFBTO0-IWhfo0u__WxC-45" value="" style="endArrow=classic;html=1;rounded=0;exitX=0;exitY=0.5;exitDx=0;exitDy=0;entryX=0;entryY=0.5;entryDx=0;entryDy=0;fillColor=#d5e8d4;strokeColor=#000000;startArrow=classic;startFill=1;" parent="1" source="dHFBTO0-IWhfo0u__WxC-41" target="dHFBTO0-IWhfo0u__WxC-43" edge="1">
          <mxGeometry width="50" height="50" relative="1" as="geometry">
            <mxPoint x="947" y="190" as="sourcePoint" />
            <mxPoint x="965" y="335" as="targetPoint" />
            <Array as="points">
              <mxPoint x="457" y="175" />
              <mxPoint x="457" y="215" />
            </Array>
          </mxGeometry>
        </mxCell>
        <mxCell id="dHFBTO0-IWhfo0u__WxC-46" value="" style="endArrow=classic;html=1;rounded=0;exitX=1;exitY=0.75;exitDx=0;exitDy=0;entryX=0;entryY=0.75;entryDx=0;entryDy=0;fillColor=#d5e8d4;strokeColor=#000000;" parent="1" source="dHFBTO0-IWhfo0u__WxC-41" target="dHFBTO0-IWhfo0u__WxC-42" edge="1">
          <mxGeometry width="50" height="50" relative="1" as="geometry">
            <mxPoint x="647" y="320" as="sourcePoint" />
            <mxPoint x="697" y="270" as="targetPoint" />
          </mxGeometry>
        </mxCell>
        <mxCell id="dHFBTO0-IWhfo0u__WxC-47" value="" style="endArrow=classic;html=1;rounded=0;entryX=1;entryY=0.25;entryDx=0;entryDy=0;exitX=0;exitY=0.25;exitDx=0;exitDy=0;fillColor=#d5e8d4;strokeColor=#000000;" parent="1" source="dHFBTO0-IWhfo0u__WxC-42" target="dHFBTO0-IWhfo0u__WxC-41" edge="1">
          <mxGeometry width="50" height="50" relative="1" as="geometry">
            <mxPoint x="647" y="320" as="sourcePoint" />
            <mxPoint x="697" y="270" as="targetPoint" />
          </mxGeometry>
        </mxCell>
        <mxCell id="dHFBTO0-IWhfo0u__WxC-48" value="&lt;div style=&quot;font-size: 14px;&quot;&gt;&lt;b&gt;AMD SNP CVM&lt;/b&gt;&lt;/div&gt;" style="rounded=0;whiteSpace=wrap;html=1;verticalAlign=top;" parent="1" vertex="1">
          <mxGeometry x="982" y="465" width="280" height="150" as="geometry" />
        </mxCell>
        <mxCell id="dHFBTO0-IWhfo0u__WxC-49" value="Hardware" style="rounded=0;whiteSpace=wrap;html=1;fillColor=#f8cecc;strokeColor=#b85450;" parent="1" vertex="1">
          <mxGeometry x="982" y="665" width="280" height="60" as="geometry" />
        </mxCell>
        <mxCell id="dHFBTO0-IWhfo0u__WxC-50" value="AMD PSP" style="rounded=0;whiteSpace=wrap;html=1;" parent="1" vertex="1">
          <mxGeometry x="1152" y="675" width="77.5" height="40" as="geometry" />
        </mxCell>
        <mxCell id="dHFBTO0-IWhfo0u__WxC-51" value="Hypervisor" style="rounded=0;whiteSpace=wrap;html=1;fillColor=#f8cecc;strokeColor=#b85450;" parent="1" vertex="1">
          <mxGeometry x="982" y="625" width="280" height="30" as="geometry" />
        </mxCell>
        <mxCell id="dHFBTO0-IWhfo0u__WxC-53" value="Virtual Firmware" style="rounded=0;whiteSpace=wrap;html=1;" parent="1" vertex="1">
          <mxGeometry x="1032" y="575" width="180" height="30" as="geometry" />
        </mxCell>
        <mxCell id="dHFBTO0-IWhfo0u__WxC-54" value="cmcd" style="rounded=0;whiteSpace=wrap;html=1;" parent="1" vertex="1">
          <mxGeometry x="1032" y="495" width="70" height="30" as="geometry" />
        </mxCell>
        <mxCell id="dHFBTO0-IWhfo0u__WxC-55" value="workload" style="rounded=0;whiteSpace=wrap;html=1;" parent="1" vertex="1">
          <mxGeometry x="1142" y="495" width="70" height="30" as="geometry" />
        </mxCell>
        <mxCell id="dHFBTO0-IWhfo0u__WxC-56" value="Guest OS" style="rounded=0;whiteSpace=wrap;html=1;" parent="1" vertex="1">
          <mxGeometry x="1032" y="535" width="180" height="30" as="geometry" />
        </mxCell>
        <mxCell id="dHFBTO0-IWhfo0u__WxC-57" value="" style="endArrow=classic;html=1;rounded=0;exitX=1;exitY=0.75;exitDx=0;exitDy=0;entryX=1;entryY=0.5;entryDx=0;entryDy=0;fillColor=#d5e8d4;strokeColor=#000000;startArrow=classic;startFill=1;" parent="1" source="dHFBTO0-IWhfo0u__WxC-56" target="dHFBTO0-IWhfo0u__WxC-50" edge="1">
          <mxGeometry width="50" height="50" relative="1" as="geometry">
            <mxPoint x="1852" y="435" as="sourcePoint" />
            <mxPoint x="1902" y="385" as="targetPoint" />
            <Array as="points">
              <mxPoint x="1242" y="558" />
              <mxPoint x="1242" y="695" />
            </Array>
          </mxGeometry>
        </mxCell>
        <mxCell id="dHFBTO0-IWhfo0u__WxC-58" value="" style="endArrow=classic;html=1;rounded=0;exitX=0;exitY=0.5;exitDx=0;exitDy=0;entryX=0;entryY=0.5;entryDx=0;entryDy=0;fillColor=#d5e8d4;strokeColor=#000000;startArrow=classic;startFill=1;" parent="1" source="dHFBTO0-IWhfo0u__WxC-54" target="dHFBTO0-IWhfo0u__WxC-56" edge="1">
          <mxGeometry width="50" height="50" relative="1" as="geometry">
            <mxPoint x="1502" y="525" as="sourcePoint" />
            <mxPoint x="1520" y="670" as="targetPoint" />
            <Array as="points">
              <mxPoint x="1012" y="510" />
              <mxPoint x="1012" y="550" />
            </Array>
          </mxGeometry>
        </mxCell>
        <mxCell id="dHFBTO0-IWhfo0u__WxC-59" value="" style="endArrow=classic;html=1;rounded=0;exitX=1;exitY=0.75;exitDx=0;exitDy=0;entryX=0;entryY=0.75;entryDx=0;entryDy=0;fillColor=#d5e8d4;strokeColor=#000000;" parent="1" source="dHFBTO0-IWhfo0u__WxC-54" target="dHFBTO0-IWhfo0u__WxC-55" edge="1">
          <mxGeometry width="50" height="50" relative="1" as="geometry">
            <mxPoint x="1202" y="655" as="sourcePoint" />
            <mxPoint x="1252" y="605" as="targetPoint" />
          </mxGeometry>
        </mxCell>
        <mxCell id="dHFBTO0-IWhfo0u__WxC-60" value="" style="endArrow=classic;html=1;rounded=0;entryX=1;entryY=0.25;entryDx=0;entryDy=0;exitX=0;exitY=0.25;exitDx=0;exitDy=0;fillColor=#d5e8d4;strokeColor=#000000;" parent="1" source="dHFBTO0-IWhfo0u__WxC-55" target="dHFBTO0-IWhfo0u__WxC-54" edge="1">
          <mxGeometry width="50" height="50" relative="1" as="geometry">
            <mxPoint x="1202" y="655" as="sourcePoint" />
            <mxPoint x="1252" y="605" as="targetPoint" />
          </mxGeometry>
        </mxCell>
        <mxCell id="dHFBTO0-IWhfo0u__WxC-72" value="" style="endArrow=none;dashed=1;html=1;rounded=0;" parent="1" edge="1">
          <mxGeometry width="50" height="50" relative="1" as="geometry">
            <mxPoint x="197" y="430" as="sourcePoint" />
            <mxPoint x="1457" y="430" as="targetPoint" />
          </mxGeometry>
        </mxCell>
        <mxCell id="dHFBTO0-IWhfo0u__WxC-73" value="" style="endArrow=none;dashed=1;html=1;rounded=0;" parent="1" edge="1">
          <mxGeometry width="50" height="50" relative="1" as="geometry">
            <mxPoint x="197" y="770" as="sourcePoint" />
            <mxPoint x="1457" y="770" as="targetPoint" />
          </mxGeometry>
        </mxCell>
        <mxCell id="dHFBTO0-IWhfo0u__WxC-74" value="&lt;div style=&quot;font-size: 14px;&quot;&gt;&lt;b style=&quot;background-color: initial;&quot;&gt;Linux&lt;/b&gt;&lt;br&gt;&lt;/div&gt;" style="rounded=0;whiteSpace=wrap;html=1;verticalAlign=top;" parent="1" vertex="1">
          <mxGeometry x="816.99" y="810" width="110" height="90" as="geometry" />
        </mxCell>
        <mxCell id="dHFBTO0-IWhfo0u__WxC-75" value="Hardware" style="rounded=0;whiteSpace=wrap;html=1;" parent="1" vertex="1">
          <mxGeometry x="706.99" y="950" width="220" height="60" as="geometry" />
        </mxCell>
        <mxCell id="dHFBTO0-IWhfo0u__WxC-77" value="ARM Trusted Firmware-A" style="rounded=0;whiteSpace=wrap;html=1;" parent="1" vertex="1">
          <mxGeometry x="706.99" y="910" width="220" height="30" as="geometry" />
        </mxCell>
        <mxCell id="dHFBTO0-IWhfo0u__WxC-79" value="workload" style="rounded=0;whiteSpace=wrap;html=1;" parent="1" vertex="1">
          <mxGeometry x="836.99" y="835" width="70" height="30" as="geometry" />
        </mxCell>
        <mxCell id="dHFBTO0-IWhfo0u__WxC-85" value="&lt;div style=&quot;font-size: 14px;&quot;&gt;&lt;b style=&quot;background-color: initial;&quot;&gt;OP-TEE&lt;/b&gt;&lt;br&gt;&lt;/div&gt;" style="rounded=0;whiteSpace=wrap;html=1;verticalAlign=top;" parent="1" vertex="1">
          <mxGeometry x="706.99" y="810" width="100" height="90" as="geometry" />
        </mxCell>
        <mxCell id="dHFBTO0-IWhfo0u__WxC-86" value="embedded cmcd" style="rounded=0;whiteSpace=wrap;html=1;" parent="1" vertex="1">
          <mxGeometry x="721.99" y="835" width="70" height="30" as="geometry" />
        </mxCell>
        <mxCell id="dHFBTO0-IWhfo0u__WxC-87" value="&lt;div style=&quot;font-size: 14px;&quot;&gt;&lt;b style=&quot;background-color: initial;&quot;&gt;TPM Platform&lt;/b&gt;&lt;br&gt;&lt;/div&gt;" style="rounded=0;whiteSpace=wrap;html=1;verticalAlign=top;" parent="1" vertex="1">
          <mxGeometry x="1097" y="810" width="220" height="90" as="geometry" />
        </mxCell>
        <mxCell id="dHFBTO0-IWhfo0u__WxC-88" value="Hardware" style="rounded=0;whiteSpace=wrap;html=1;align=right;" parent="1" vertex="1">
          <mxGeometry x="1097" y="950" width="220" height="60" as="geometry" />
        </mxCell>
        <mxCell id="dHFBTO0-IWhfo0u__WxC-89" value="TPM" style="rounded=0;whiteSpace=wrap;html=1;" parent="1" vertex="1">
          <mxGeometry x="1107" y="960" width="90" height="40" as="geometry" />
        </mxCell>
        <mxCell id="dHFBTO0-IWhfo0u__WxC-90" value="Firmware" style="rounded=0;whiteSpace=wrap;html=1;" parent="1" vertex="1">
          <mxGeometry x="1097" y="910" width="220" height="30" as="geometry" />
        </mxCell>
        <mxCell id="dHFBTO0-IWhfo0u__WxC-91" value="cmcd" style="rounded=0;whiteSpace=wrap;html=1;" parent="1" vertex="1">
          <mxGeometry x="1122" y="840" width="70" height="20" as="geometry" />
        </mxCell>
        <mxCell id="dHFBTO0-IWhfo0u__WxC-92" value="workload" style="rounded=0;whiteSpace=wrap;html=1;" parent="1" vertex="1">
          <mxGeometry x="1232" y="840" width="70" height="20" as="geometry" />
        </mxCell>
        <mxCell id="dHFBTO0-IWhfo0u__WxC-93" value="Kernel" style="rounded=0;whiteSpace=wrap;html=1;" parent="1" vertex="1">
          <mxGeometry x="1122" y="870" width="180" height="20" as="geometry" />
        </mxCell>
        <mxCell id="dHFBTO0-IWhfo0u__WxC-94" value="" style="endArrow=classic;html=1;rounded=0;exitX=1;exitY=0.75;exitDx=0;exitDy=0;entryX=0;entryY=0.75;entryDx=0;entryDy=0;fillColor=#d5e8d4;strokeColor=#000000;" parent="1" source="dHFBTO0-IWhfo0u__WxC-91" target="dHFBTO0-IWhfo0u__WxC-92" edge="1">
          <mxGeometry width="50" height="50" relative="1" as="geometry">
            <mxPoint x="1292" y="990" as="sourcePoint" />
            <mxPoint x="1342" y="940" as="targetPoint" />
          </mxGeometry>
        </mxCell>
        <mxCell id="dHFBTO0-IWhfo0u__WxC-95" value="" style="endArrow=classic;html=1;rounded=0;entryX=1;entryY=0.25;entryDx=0;entryDy=0;exitX=0;exitY=0.25;exitDx=0;exitDy=0;fillColor=#d5e8d4;strokeColor=#000000;" parent="1" source="dHFBTO0-IWhfo0u__WxC-92" target="dHFBTO0-IWhfo0u__WxC-91" edge="1">
          <mxGeometry width="50" height="50" relative="1" as="geometry">
            <mxPoint x="1292" y="990" as="sourcePoint" />
            <mxPoint x="1342" y="940" as="targetPoint" />
          </mxGeometry>
        </mxCell>
        <mxCell id="dHFBTO0-IWhfo0u__WxC-96" value="" style="edgeStyle=segmentEdgeStyle;endArrow=classic;html=1;curved=0;rounded=0;endSize=8;startSize=8;exitX=0.5;exitY=0;exitDx=0;exitDy=0;entryX=0;entryY=0.75;entryDx=0;entryDy=0;startArrow=classic;startFill=1;" parent="1" source="dHFBTO0-IWhfo0u__WxC-89" target="dHFBTO0-IWhfo0u__WxC-93" edge="1">
          <mxGeometry width="50" height="50" relative="1" as="geometry">
            <mxPoint x="1087" y="900" as="sourcePoint" />
            <mxPoint x="1137" y="850" as="targetPoint" />
            <Array as="points">
              <mxPoint x="1152" y="930" />
              <mxPoint x="1107" y="930" />
              <mxPoint x="1107" y="885" />
            </Array>
          </mxGeometry>
        </mxCell>
        <mxCell id="dHFBTO0-IWhfo0u__WxC-97" value="" style="edgeStyle=segmentEdgeStyle;endArrow=classic;html=1;curved=0;rounded=0;endSize=8;startSize=8;exitX=0;exitY=0.25;exitDx=0;exitDy=0;entryX=0;entryY=0.5;entryDx=0;entryDy=0;startArrow=classic;startFill=1;" parent="1" source="dHFBTO0-IWhfo0u__WxC-93" target="dHFBTO0-IWhfo0u__WxC-91" edge="1">
          <mxGeometry width="50" height="50" relative="1" as="geometry">
            <mxPoint x="1146.99" y="990" as="sourcePoint" />
            <mxPoint x="1141.99" y="880" as="targetPoint" />
            <Array as="points">
              <mxPoint x="1107" y="875" />
              <mxPoint x="1107" y="850" />
            </Array>
          </mxGeometry>
        </mxCell>
        <mxCell id="dHFBTO0-IWhfo0u__WxC-99" value="&lt;div style=&quot;font-size: 14px;&quot;&gt;&lt;b style=&quot;background-color: initial;&quot;&gt;Zephyr-OS&lt;/b&gt;&lt;br&gt;&lt;/div&gt;" style="rounded=0;whiteSpace=wrap;html=1;verticalAlign=top;" parent="1" vertex="1">
          <mxGeometry x="297" y="810" width="220" height="70" as="geometry" />
        </mxCell>
        <mxCell id="dHFBTO0-IWhfo0u__WxC-100" value="Hardware" style="rounded=0;whiteSpace=wrap;html=1;" parent="1" vertex="1">
          <mxGeometry x="297" y="950" width="220" height="60" as="geometry" />
        </mxCell>
        <mxCell id="dHFBTO0-IWhfo0u__WxC-101" value="ARM Trusted&amp;nbsp;&lt;div&gt;Firmware-M&lt;/div&gt;" style="rounded=0;whiteSpace=wrap;html=1;align=left;" parent="1" vertex="1">
          <mxGeometry x="297" y="890" width="220" height="50" as="geometry" />
        </mxCell>
        <mxCell id="dHFBTO0-IWhfo0u__WxC-102" value="workload" style="rounded=0;whiteSpace=wrap;html=1;" parent="1" vertex="1">
          <mxGeometry x="437" y="840" width="70" height="30" as="geometry" />
        </mxCell>
        <mxCell id="dHFBTO0-IWhfo0u__WxC-104" value="embedded cmcd" style="rounded=0;whiteSpace=wrap;html=1;" parent="1" vertex="1">
          <mxGeometry x="437" y="900" width="70" height="30" as="geometry" />
        </mxCell>
        <mxCell id="dHFBTO0-IWhfo0u__WxC-105" value="" style="edgeStyle=segmentEdgeStyle;endArrow=none;html=1;curved=0;rounded=0;endSize=8;startSize=8;startArrow=none;startFill=0;dashed=1;strokeWidth=3;fillColor=#f5f5f5;strokeColor=#666666;endFill=0;exitX=1;exitY=0.5;exitDx=0;exitDy=0;entryX=1;entryY=0.5;entryDx=0;entryDy=0;" parent="1" source="dHFBTO0-IWhfo0u__WxC-42" target="dHFBTO0-IWhfo0u__WxC-25" edge="1">
          <mxGeometry width="50" height="50" relative="1" as="geometry">
            <mxPoint x="766.99" y="190" as="sourcePoint" />
            <mxPoint x="830" y="400" as="targetPoint" />
            <Array as="points">
              <mxPoint x="810" y="175" />
              <mxPoint x="810" y="535" />
            </Array>
          </mxGeometry>
        </mxCell>
        <mxCell id="dHFBTO0-IWhfo0u__WxC-107" value="" style="edgeStyle=segmentEdgeStyle;endArrow=none;html=1;curved=0;rounded=0;endSize=8;startSize=8;startArrow=none;startFill=0;dashed=1;strokeWidth=3;fillColor=#f5f5f5;strokeColor=#666666;endFill=0;exitX=1;exitY=0.5;exitDx=0;exitDy=0;entryX=1;entryY=0.5;entryDx=0;entryDy=0;" parent="1" source="dHFBTO0-IWhfo0u__WxC-42" target="dHFBTO0-IWhfo0u__WxC-55" edge="1">
          <mxGeometry width="50" height="50" relative="1" as="geometry">
            <mxPoint x="667" y="185" as="sourcePoint" />
            <mxPoint x="1260" y="515" as="targetPoint" />
            <Array as="points">
              <mxPoint x="810" y="175" />
              <mxPoint x="810" y="410" />
              <mxPoint x="1340" y="410" />
              <mxPoint x="1340" y="510" />
            </Array>
          </mxGeometry>
        </mxCell>
        <mxCell id="dHFBTO0-IWhfo0u__WxC-108" value="" style="edgeStyle=segmentEdgeStyle;endArrow=none;html=1;curved=0;rounded=0;endSize=8;startSize=8;startArrow=none;startFill=0;dashed=1;strokeWidth=3;fillColor=#f5f5f5;strokeColor=#666666;endFill=0;exitX=1;exitY=0.5;exitDx=0;exitDy=0;entryX=1;entryY=0.5;entryDx=0;entryDy=0;" parent="1" source="dHFBTO0-IWhfo0u__WxC-42" target="10" edge="1">
          <mxGeometry width="50" height="50" relative="1" as="geometry">
            <mxPoint x="667" y="185" as="sourcePoint" />
            <mxPoint x="1277" y="525" as="targetPoint" />
            <Array as="points">
              <mxPoint x="810" y="175" />
              <mxPoint x="810" y="410" />
              <mxPoint x="1340" y="410" />
              <mxPoint x="1340" y="175" />
            </Array>
          </mxGeometry>
        </mxCell>
        <mxCell id="dHFBTO0-IWhfo0u__WxC-110" value="" style="edgeStyle=segmentEdgeStyle;endArrow=none;html=1;curved=0;rounded=0;endSize=8;startSize=8;startArrow=none;startFill=0;dashed=1;strokeWidth=3;fillColor=#f5f5f5;strokeColor=#666666;endFill=0;exitX=1;exitY=0.5;exitDx=0;exitDy=0;entryX=1;entryY=0.5;entryDx=0;entryDy=0;" parent="1" source="dHFBTO0-IWhfo0u__WxC-55" target="dHFBTO0-IWhfo0u__WxC-92" edge="1">
          <mxGeometry width="50" height="50" relative="1" as="geometry">
            <mxPoint x="1420" y="600" as="sourcePoint" />
            <mxPoint x="2030" y="940" as="targetPoint" />
            <Array as="points">
              <mxPoint x="1340" y="510" />
              <mxPoint x="1340" y="850" />
            </Array>
          </mxGeometry>
        </mxCell>
        <mxCell id="dHFBTO0-IWhfo0u__WxC-111" value="" style="edgeStyle=segmentEdgeStyle;endArrow=none;html=1;curved=0;rounded=0;endSize=8;startSize=8;startArrow=none;startFill=0;dashed=1;strokeWidth=3;fillColor=#f5f5f5;strokeColor=#666666;endFill=0;entryX=1;entryY=0.5;entryDx=0;entryDy=0;exitX=1;exitY=0.5;exitDx=0;exitDy=0;" parent="1" source="dHFBTO0-IWhfo0u__WxC-25" target="dHFBTO0-IWhfo0u__WxC-79" edge="1">
          <mxGeometry width="50" height="50" relative="1" as="geometry">
            <mxPoint x="907" y="515" as="sourcePoint" />
            <mxPoint x="1312" y="860" as="targetPoint" />
            <Array as="points">
              <mxPoint x="810" y="535" />
              <mxPoint x="810" y="750" />
              <mxPoint x="990" y="750" />
              <mxPoint x="990" y="850" />
            </Array>
          </mxGeometry>
        </mxCell>
        <mxCell id="dHFBTO0-IWhfo0u__WxC-113" value="" style="edgeStyle=segmentEdgeStyle;endArrow=none;html=1;curved=0;rounded=0;endSize=8;startSize=8;startArrow=none;startFill=0;dashed=1;strokeWidth=3;fillColor=#f5f5f5;strokeColor=#666666;endFill=0;entryX=1;entryY=0.5;entryDx=0;entryDy=0;exitX=1;exitY=0.5;exitDx=0;exitDy=0;" parent="1" source="dHFBTO0-IWhfo0u__WxC-102" target="dHFBTO0-IWhfo0u__WxC-79" edge="1">
          <mxGeometry width="50" height="50" relative="1" as="geometry">
            <mxPoint x="945.46" y="550" as="sourcePoint" />
            <mxPoint x="915.46" y="890" as="targetPoint" />
            <Array as="points">
              <mxPoint x="610" y="855" />
              <mxPoint x="610" y="750" />
              <mxPoint x="990" y="750" />
              <mxPoint x="990" y="850" />
            </Array>
          </mxGeometry>
        </mxCell>
        <mxCell id="dHFBTO0-IWhfo0u__WxC-114" value="" style="edgeStyle=segmentEdgeStyle;endArrow=none;html=1;curved=0;rounded=0;endSize=8;startSize=8;startArrow=none;startFill=0;dashed=1;strokeWidth=3;fillColor=#f5f5f5;strokeColor=#666666;endFill=0;entryX=1;entryY=0.5;entryDx=0;entryDy=0;exitX=1;exitY=0.5;exitDx=0;exitDy=0;" parent="1" source="dHFBTO0-IWhfo0u__WxC-79" target="dHFBTO0-IWhfo0u__WxC-92" edge="1">
          <mxGeometry width="50" height="50" relative="1" as="geometry">
            <mxPoint x="915.46" y="874.92" as="sourcePoint" />
            <mxPoint x="1315.46" y="894.92" as="targetPoint" />
            <Array as="points">
              <mxPoint x="990" y="850" />
              <mxPoint x="990" y="750" />
              <mxPoint x="1340" y="750" />
              <mxPoint x="1340" y="850" />
            </Array>
          </mxGeometry>
        </mxCell>
        <mxCell id="dHFBTO0-IWhfo0u__WxC-116" value="Cloud" style="text;html=1;align=center;verticalAlign=middle;whiteSpace=wrap;rounded=0;fontStyle=1;fontSize=24;" parent="1" vertex="1">
          <mxGeometry x="40" y="210" width="113.01" height="40" as="geometry" />
        </mxCell>
        <mxCell id="dHFBTO0-IWhfo0u__WxC-117" value="Edge" style="text;html=1;align=center;verticalAlign=middle;whiteSpace=wrap;rounded=0;fontStyle=1;fontSize=24;" parent="1" vertex="1">
          <mxGeometry x="40" y="565" width="113.01" height="40" as="geometry" />
        </mxCell>
        <mxCell id="dHFBTO0-IWhfo0u__WxC-118" value="OT" style="text;html=1;align=center;verticalAlign=middle;whiteSpace=wrap;rounded=0;fontStyle=1;fontSize=24;" parent="1" vertex="1">
          <mxGeometry x="40" y="880" width="113.01" height="40" as="geometry" />
        </mxCell>
        <mxCell id="7gU7ec5pM6VJIalKW_Lk-15" value="vTPM" style="rounded=0;whiteSpace=wrap;html=1;" vertex="1" parent="1">
          <mxGeometry x="721.99" y="870" width="70" height="25" as="geometry" />
        </mxCell>
        <mxCell id="7gU7ec5pM6VJIalKW_Lk-16" value="" style="endArrow=classic;html=1;rounded=0;exitX=0.25;exitY=1;exitDx=0;exitDy=0;entryX=0.25;entryY=0;entryDx=0;entryDy=0;" edge="1" parent="1" source="dHFBTO0-IWhfo0u__WxC-102" target="dHFBTO0-IWhfo0u__WxC-104">
          <mxGeometry width="50" height="50" relative="1" as="geometry">
            <mxPoint x="610" y="810" as="sourcePoint" />
            <mxPoint x="660" y="760" as="targetPoint" />
          </mxGeometry>
        </mxCell>
        <mxCell id="7gU7ec5pM6VJIalKW_Lk-17" value="" style="endArrow=classic;html=1;rounded=0;exitX=0.75;exitY=0;exitDx=0;exitDy=0;entryX=0.75;entryY=1;entryDx=0;entryDy=0;" edge="1" parent="1" source="dHFBTO0-IWhfo0u__WxC-104" target="dHFBTO0-IWhfo0u__WxC-102">
          <mxGeometry width="50" height="50" relative="1" as="geometry">
            <mxPoint x="610" y="810" as="sourcePoint" />
            <mxPoint x="660" y="760" as="targetPoint" />
          </mxGeometry>
        </mxCell>
        <mxCell id="7gU7ec5pM6VJIalKW_Lk-18" value="" style="endArrow=classic;html=1;rounded=0;entryX=0;entryY=0.25;entryDx=0;entryDy=0;exitX=1;exitY=0.25;exitDx=0;exitDy=0;" edge="1" parent="1" source="dHFBTO0-IWhfo0u__WxC-86" target="dHFBTO0-IWhfo0u__WxC-79">
          <mxGeometry width="50" height="50" relative="1" as="geometry">
            <mxPoint x="580" y="870" as="sourcePoint" />
            <mxPoint x="630" y="820" as="targetPoint" />
          </mxGeometry>
        </mxCell>
        <mxCell id="7gU7ec5pM6VJIalKW_Lk-19" value="" style="endArrow=classic;html=1;rounded=0;exitX=0;exitY=0.75;exitDx=0;exitDy=0;entryX=1;entryY=0.75;entryDx=0;entryDy=0;" edge="1" parent="1" source="dHFBTO0-IWhfo0u__WxC-79" target="dHFBTO0-IWhfo0u__WxC-86">
          <mxGeometry width="50" height="50" relative="1" as="geometry">
            <mxPoint x="580" y="870" as="sourcePoint" />
            <mxPoint x="630" y="820" as="targetPoint" />
          </mxGeometry>
        </mxCell>
      </root>
    </mxGraphModel>
  </diagram>
</mxfile>
